<?xml version="1.0" standalone="no"?>
<!DOCTYPE svg PUBLIC "-//W3C//DTD SVG 20010904//EN"
 "http://www.w3.org/TR/2001/REC-SVG-20010904/DTD/svg10.dtd">
<svg version="1.0" xmlns="http://www.w3.org/2000/svg"
 width="180.000000pt" height="180.000000pt" viewBox="0 0 180.000000 180.000000"
 preserveAspectRatio="xMidYMid meet">
<metadata>
Created by potrace 1.14, written by Peter Selinger 2001-2017
</metadata>
<g transform="translate(0.000000,180.000000) scale(0.100000,-0.100000)"
fill="#000000" stroke="none">
<path d="M809 1796 c-2 -2 -27 -6 -55 -10 -67 -8 -190 -48 -267 -88 -211 -109
-380 -311 -445 -533 -30 -101 -33 -119 -37 -230 -4 -126 8 -217 45 -326 17
-47 32 -104 34 -127 4 -44 29 -92 47 -92 5 0 52 -42 103 -93 196 -198 384
-284 636 -292 115 -3 145 0 280 30 29 6 123 46 174 73 89 48 130 78 202 148
115 113 192 242 240 401 23 77 27 106 27 233 1 104 -4 164 -16 213 -63 253
-232 474 -452 589 -68 35 -189 80 -250 93 -36 7 -260 17 -266 11z"/>
</g>
</svg>
